<svg width="512" height="512" viewBox="0 0 512 512" xmlns="http://www.w3.org/2000/svg">
  <defs>
    <linearGradient id="bg" x1="0%" y1="0%" x2="100%" y2="100%">
      <stop offset="0%" stop-color="#7c3aed"/>
      <stop offset="100%" stop-color="#2dd4bf"/>
    </linearGradient>
  </defs>
  <rect width="512" height="512" rx="102" fill="url(#bg)"/>
  <g transform="translate(86,128)">
    <rect x="0" y="0" width="224" height="160" rx="28" fill="rgba(255,255,255,0.25)"/>
    <rect x="16" y="16" width="192" height="112" rx="16" fill="rgba(0,0,0,0.3)"/>
    <rect x="48" y="40" width="28" height="28" rx="6" fill="#fff" opacity="0.9"/>
    <rect x="88" y="40" width="28" height="28" rx="6" fill="#fff" opacity="0.6"/>
    <rect x="128" y="40" width="28" height="28" rx="6" fill="#fff" opacity="0.8"/>
    <rect x="48" y="80" width="28" height="28" rx="6" fill="#fff" opacity="0.5"/>
    <rect x="88" y="80" width="28" height="28" rx="6" fill="#fff" opacity="0.85"/>
    <rect x="128" y="80" width="28" height="28" rx="6" fill="#fff" opacity="0.65"/>
    <circle cx="184" cy="36" r="12" fill="#f43f5e"/>
    <path d="M 240 40 Q 272 80 240 120" fill="none" stroke="#fff" stroke-width="7" stroke-linecap="round" opacity="0.7"/>
    <path d="M 264 16 Q 304 80 264 144" fill="none" stroke="#fff" stroke-width="7" stroke-linecap="round" opacity="0.35"/>
  </g>
</svg>
